<svg version="1.1" xmlns="http://www.w3.org/2000/svg" xmlns:xlink="http://www.w3.org/1999/xlink" x="0px" y="0px"
	 viewBox="0 0 264 285" enable-background="new 0 0 264 285" xml:space="preserve">
	<g id="Layer_1">
	</g>
	<g id="Layer_2">
		<g>
			<path fill="#3A1E10" d="M220.9,273.6c-1.3,0.1-2.7,0-3.9,0c-2.3,0-25.1,0.6-25.1,0.6s-30.5,0.5-33.2,0.5c-0.8,0-1.6,0.1-2.4-0.3
				c-3.5,0.1-7.1,0.1-10.6,0.2c0,0,0,0,0,0l-52.8,0.7c0,0,0,0,0,0c-8.5,0.1-15.1,0.2-18.5,0.2c-2,0-3.7-0.2-5.3-0.6
				c-6.6-0.1-17.2-0.3-30.1-0.5c-3.2,0-6.2-0.3-9-0.6c-16.9,0.6-27,1.4-27,2.3c0,2,55.1,3.7,123,3.7s123-1.6,123-3.7
				C249.1,275,238.5,274.2,220.9,273.6z"/>
			<path fill="#44351C" d="M208.1,40.6c3.1-8.6,3.2-19.7,2.8-24.3c-0.5-4.9-5.9-2.9-17.6-0.2c-7.3,1.6-13.2,2.6-16.5,3.1
				c1,0.2,1.9,0.3,2.9,0.5C188.7,21.5,200.3,29.1,208.1,40.6z M202.8,19.4c3.4-1.9,3.1,0.2,3.1,0.2c0.8,4.5-1.7,15.8-1.7,15.8
				c-6.5-7.6-13.2-11.2-13.2-11.2C193.1,23.8,199.4,21.3,202.8,19.4z"/>
			<path fill="#010001" d="M69.1,274.8c-8.3-2.2-11.2-10-11.9-20.5c-5.4,0-27.5,0-30.2-0.3c-3-0.3-4-2.3-3.3-5.3
				c0.7-3,11.2-2.5,12.5-2.8s6.6-0.5,6.1-11.2c-0.4-8.4-13.7-7.7-21.7-5.7s-15.3,10.7-15,24c0.3,11.4,8.3,18.6,24.3,20.7
				c2.8,0.4,5.8,0.6,9,0.6C52,274.4,62.5,274.6,69.1,274.8z"/>
			<path fill="#EEE0AD" d="M215.9,198c5.7,3.6,14.9,9.4,15.5,9.9c1.1,0.9,1.5,1.4,1.5,3.4c0.3-2.9,0.4-5.1,0.2-6.4
				c-0.4-3.5-0.3-8-0.2-12.6c1,0.5,2.7,1.6,4.2,4c1.9,3-0.7-3.4-4.2-7.3c0.1-5.2,0.1-10.3-0.4-13.9c-2.5,6.9-6.4,12.2-8.2,14.3
				C222.7,191.5,219.4,194.7,215.9,198z"/>
			<path fill="#EEE0AD" d="M69.1,274.8c1.6,0.4,3.3,0.6,5.3,0.6c3.4,0,10-0.1,18.5-0.2c0.1-0.6,5-21.8,25.5-20.6
				c20.7,1.2,25.3,11.9,27.3,19.9c3.5-0.1,7.1-0.1,10.6-0.2c-1.7-0.8-3.2-3.9-4.4-15.7c-1.8-17-8.2-50.8-8.2-50.8
				c6.1-2.6,26.7-14.1,34.1-18.2c-2.4-2-5-4.1-7.8-6.5c-26-21.8-56-19.5-56-19.5s-0.5-0.2-1.1-0.7c-1.8,2.5-10,13.8-16,24.8
				c-3.4-1.4-6.4-0.5-6.4-0.5c2.3,0.3,4.1,2.1,5,3.2c-1.9,3.8-3.5,7.4-4.3,10.5c0,0-30.5,1.8-32.8,26.8c-0.5,5.8-1,11.5-1.2,16.8
				c-1.4,0.7-3.7,1.3-7.5,1.2c0,0,3.1,2.3,7.4,2.7c0,0.1,0,0.3,0,0.4l-4.9,1.2c0,0,2.4,0.7,5,0.7c0,1.2,0.1,2.4,0.1,3.6
				C57.9,264.7,60.9,272.5,69.1,274.8z M145.9,193.6c2.2-0.8,3.1-1.9,3.1-1.9c1.9-4,7.5-1.6,7,0.6s-3.6,4.2-4.4,4.3s-2.1,2.1-5.7,1
				S143.7,194.5,145.9,193.6z M126.1,167.9c0.3-0.1,4.5-0.3,3.4,1.4c-1.1,1.8-4.6,5.3-6.7,4.5C120.6,173.1,118.7,170,126.1,167.9z
				 M89.7,212.9c2.2-1,3.6,0.7,4-1.2c0.4-1.9-0.5-4.4,1.5-5.1c2-0.7,5.4,1.6,8.2-0.4c2.7-1.9,1.8-3.3,5.2-5.2s7.1-0.7,9-2.3
				c1.9-1.6,3.1-4.8,4.7-4c1.6,0.8,0.3,4.8-2.8,6.4c-3.1,1.6-5.3,5.9-3.4,7s-0.4,5.4-2.8,4.8c-2.3-0.6-1.8-2.7-3.9-1.2
				s-0.6,5-2.2,6.1c-1.6,1.1-4.4-2-5.7-0.5c-2.9,3.4,2.4,14.8-2,14.6c-6.1-0.2,0.5-9.5-3.5-14.6c-0.3-0.4-2.4,3.5-5.2,1.5
				C88.3,217,87.5,213.9,89.7,212.9z M77.3,247.1c1,0.2,2.6-2.9,3.9-4.1s4,0.1,4,0.1c1.1-1.1,2.5-0.4,2.3,1.1
				c-0.2,1.5-3.9,3.1-4.3,4.1c-0.4,1-0.1,3.1-2.4,5.2c-0.3,0.5-1.4,1.1-2.1,2.7c-0.7,1.6-0.8,7.8-0.6,9.7s-2.1,1.6-1.4-0.3
				c0.2-0.7,0.1-4.7,0.1-8.5c0-2.2-0.5-3.5-0.9-4.2c-0.1-0.1-0.2-0.3-0.3-0.4c-0.1-0.2-0.2-0.2-0.2-0.2c-0.1-0.1-0.1-0.3-0.2-0.4
				c-0.6-0.9-1-1.8-0.5-1.9c0.9-0.3-0.4-2-0.3-2.9C74.4,245.9,76.4,246.9,77.3,247.1z"/>
			<path fill="#D3B489" d="M177.7,189.7c-7.4,4.1-28,15.6-34.1,18.2c0,0,6.5,33.8,8.2,50.8c1.2,11.9,2.7,15,4.4,15.7
				c0.7,0.3,1.5,0.3,2.4,0.3c2.8,0,33.2-0.5,33.2-0.5l1-72C189.2,199.1,184.2,195.1,177.7,189.7z"/>
			<path fill="#C0985A" d="M231.4,207.9c-0.6-0.5-9.7-6.3-15.5-9.9c-6.2,5.9-13,11.9-13,11.9s-2.5-1.8-10-7.8l-1,72
				c0,0,22.8-0.6,25.1-0.6c1.2,0,2.6,0.1,3.9,0c1.9-0.1,3.5-0.5,3.8-2.2c0.5-2.8,7.6-51.9,8.1-56.9c0.1-1.4,0.2-2.4,0.2-3.2
				C232.9,209.3,232.5,208.8,231.4,207.9z"/>
			<path fill="#C0985A" d="M118.4,254.7c-20.4-1.2-25.4,20-25.5,20.6c0,0,0,0,0,0l52.8-0.7c0,0,0,0,0,0
				C143.7,266.6,139.1,255.9,118.4,254.7z"/>
			<path fill="#EEE0AD" d="M218.5,120.9c2.5,1.3,5.4,1.8,5.4,1.8c-2.7-2.2-4.6-7.3-5.6-10.3c-0.1-4.1-0.2-8.6-0.4-13.2
				c-3.4,11-12.2,18.5-28.7,18.2c-21.3-0.5-33.2,0.3-37.8,0.3s-25.2-1-29.5-20.7s11-32.2,20.3-34.5c0,0-1.3-15.5,9.2-20.3
				c10.5-4.8,20.3,0.8,20.3,0.8s9.2-7.3,20.2-0.8s8.8,18.8,8.8,18.8s11.5,6.9,16.5,17.5c-0.1-4-0.3-8-0.4-11.7
				c-0.3-9.9-3.8-18.8-8.8-26.1c-7.9-11.5-19.5-19.1-28.5-20.9c-1-0.2-2-0.4-2.9-0.5c-10.2-1.8-18.7-1.3-30.4,4.8
				c0.2,0.1,0.3,0.2,0.3,0.2s-14.4,27.3-29.2,30.4c0,0-0.1,0-0.1-0.1c-2.2,8-2.1,17-2.1,27.5c0,5.6-0.1,11.7-0.4,17.6
				c-0.6,2.8-2.2,7.9-5.6,10.4c0,0,3-0.2,5.3-1.8c-0.7,13.6-1.5,24.6-1.5,24.6l105.2-0.5C218.4,130.3,218.5,126.3,218.5,120.9z"/>
			<path fill="#FFFFFF" d="M169.9,183.2c2.8,2.4,5.4,4.5,7.8,6.5c6.5,5.4,11.5,9.5,15.2,12.5c7.5,6,10,7.8,10,7.8s6.9-6,13-11.9
				c3.5-3.3,6.8-6.5,8.5-8.6c1.8-2.1,5.6-7.4,8.2-14.3c1.5-4.1,2.5-8.8,2.4-13.8c3,1.3,6.1,1.6,6.1,1.6c-2.3-0.5-5.4-5.4-6.9-8.3
				c-1.8-7.4-6.5-15.1-16-22.5l-105.2,0.5c0,0-4.3,4.5-5.3,12.5l0-0.1c0,0,0,0.1,0,0.3c-0.1,0.8-0.2,1.6-0.2,2.5
				c-0.5,3.1-2.1,7.8-7.3,8.7c0,0,4.9-0.2,8-1.9c0.1,0.6,0.3,1.1,0.4,1.6c-0.8,1.4-1.4,2.7-1.4,2.7h2.5c1.1,2.1,2.3,3.3,3.2,4
				c0.7,0.5,1.1,0.7,1.1,0.7S143.9,161.4,169.9,183.2z M188.4,164.9c0.3-2.6,2.3-4,2.3-4s0.7-5.8,4-5.7c3.3,0,4,3.3,5.7,1
				c1.6-2.3,4.9-7.5,8.1-8.2c3.2-0.6,2.7,5.2,4.3,6.3s10.4-0.7,8.9,2.1c-1.9,3.7,0.5,13.1-2.6,12.2c-3-0.8,1-6.4-5.6-6.9
				c-6.6-0.5-6.3,3.8-4.4,5.8c1.9,2,4.2,4.1,2.1,5.1c-2.1,1-4,1.7-5.9,0.8c-1.9-0.9,0.9,2.4-1.3,3.5c-2.2,1.1-6.4-1.3-7.5,1.2
				c-1.6,3.5,2.4,10.8-0.8,11.4s-1.4-14.5-1.4-14.5s-0.3-4.1-3-5.1C188.7,169,188.1,167.5,188.4,164.9z M163.7,147
				c1.8-1.3,5.5-0.8,6.1-0.3c0.7,0.5,2.9-0.2,4.9,3c2,3.2-0.4,3.8-2.6,3s-3.6-0.6-3.6-0.6C164.5,153.9,161.9,148.3,163.7,147z"/>
			<path fill="#FFFFFF" d="M200.7,60.9c0,0,2.2-12.3-8.8-18.8s-20.2,0.8-20.2,0.8s-9.8-5.7-20.3-0.8c-10.5,4.8-9.2,20.3-9.2,20.3
				c-9.3,2.3-24.7,14.8-20.3,34.5s24.8,20.7,29.5,20.7s16.5-0.8,37.8-0.3c16.5,0.4,25.4-7.1,28.7-18.2c1-3.2,1.5-6.7,1.6-10.3
				c0.1-3.7-0.8-7.2-2.3-10.3C212.2,67.8,200.7,60.9,200.7,60.9z M144,105.8c-2.3-0.4-0.4-11.1-0.9-11.9s-1.8,0.9-2.7,1.1
				s-0.6-1.9-0.7-2.9c-0.1-1-3.5-1.6-5.1-2.6c-1.6-0.9-1.1-3.8-1.1-3.8c-1.4-0.7-1.1-2.3,0.4-2.5s4.1,2.9,5.1,3c1,0.1,3-0.7,5.6,0.8
				s1.7,5.6,0.9,6.7S148.5,106.5,144,105.8z M180.4,52.6c0-1.3,1-2.3,2.3-2.3s2.3,1,2.3,2.3v0.9c-0.3-0.2-0.7-0.4-1.1-0.4
				c-1,0-1.9,0.8-1.9,1.9c0,1,0.8,1.9,1.9,1.9c0.4,0,0.8-0.1,1.1-0.4v4.2c0,1.3-1,2.3-2.3,2.3s-2.3-1-2.3-2.3V52.6z M161.6,62.9
				c-1.3,0-2.3-1-2.3-2.3v-8c0-1.3,1-2.3,2.3-2.3h0c1.3,0,2.3,1,2.3,2.3v0.9c-0.3-0.2-0.7-0.4-1.1-0.4c-1,0-1.9,0.8-1.9,1.9
				c0,1,0.8,1.9,1.9,1.9c0.4,0,0.8-0.1,1.1-0.4v4.2C163.9,61.9,162.9,62.9,161.6,62.9L161.6,62.9z M182.3,96c-3.6,0.2-6-1.4-7.3-3
				c-1.5,2.4-4.6,3.1-7,3.1c-0.6,0-1.1,0-1.5-0.1c-0.5-0.1-0.9-0.6-0.9-1.1c0.1-0.5,0.6-0.9,1.1-0.9c0.3,0,6.3,0.8,7.1-3.4
				c0.1-0.4,0.5-0.8,0.9-0.8c0.5,0,0.9,0.2,1,0.7c0.1,0.1,1.5,3.8,6.5,3.6c0.6,0,1,0.4,1,1C183.3,95.5,182.9,96,182.3,96z M184,75.6
				c-1.8,3.8-3.8,7.1-9.6,7.6s-8-4.4-9.6-6.4c0,0-3.6-4.4-1.6-7.8s2.9-3.4,13.4-3.9S185.7,71.9,184,75.6z"/>
			<path fill="#010001" d="M176.5,65.2c-10.5,0.5-11.4,0.5-13.4,3.9s1.6,7.8,1.6,7.8c1.6,2,3.8,6.9,9.6,6.4s7.9-3.9,9.6-7.6
				S187,64.7,176.5,65.2z"/>
			<path fill="#0A0A0A" d="M182.2,94c-5,0.2-6.5-3.4-6.5-3.6c-0.2-0.4-0.6-0.7-1-0.7c-0.4,0-0.8,0.4-0.9,0.8
				c-0.8,4.2-6.9,3.5-7.1,3.4c-0.6-0.1-1.1,0.3-1.1,0.9c-0.1,0.5,0.3,1,0.9,1.1c0.5,0.1,1,0.1,1.5,0.1c2.4,0,5.5-0.7,7-3.1
				c1.3,1.6,3.7,3.2,7.3,3c0.6,0,1-0.5,1-1C183.3,94.4,182.8,94,182.2,94z"/>
			<path fill="#675431" d="M146.7,24.2c0,0-0.1-0.1-0.3-0.2c-0.8-0.6-3.5-2.1-8.4-2.9c-6.1-1-12.9-0.4-21-2s-13.2-3.2-12.1,11
				c1.1,13.3,11.2,23.1,12.5,24.4c0.1,0.1,0.1,0.1,0.1,0.1C132.3,51.4,146.7,24.2,146.7,24.2z M116.9,51c-4.6-6.5-9-20.9-9.5-24.4
				s1-3.1,2.2-2.6s14.9,9.9,18.2,12.1s2.4,3.2,1.1,3.8s-6.9,7.5-8.5,11.2S117.5,51.9,116.9,51z"/>
			<path fill="#44351C" d="M120.5,51.2c1.6-3.8,7.2-10.8,8.5-11.2s2.2-1.5-1.1-3.8s-17-11.6-18.2-12.1s-2.8-0.9-2.2,2.6
				s4.9,17.9,9.5,24.4C117.5,51.9,118.9,54.9,120.5,51.2z"/>
			<path fill="#231B0E" d="M204.2,35.4c0,0,2.5-11.3,1.7-15.8c0,0,0.2-2.1-3.1-0.2s-9.7,4.4-11.8,4.9C191,24.3,197.7,27.8,204.2,35.4
				z"/>
			<path fill="#010001" d="M163.9,60.6v-4.2c-0.3,0.2-0.7,0.4-1.1,0.4c-1,0-1.9-0.8-1.9-1.9c0-1,0.8-1.9,1.9-1.9
				c0.4,0,0.8,0.1,1.1,0.4v-0.9c0-1.3-1-2.3-2.3-2.3h0c-1.3,0-2.3,1-2.3,2.3v8c0,1.3,1,2.3,2.3,2.3h0
				C162.9,62.9,163.9,61.9,163.9,60.6z"/>
			<path fill="#010001" d="M182.7,62.9c1.3,0,2.3-1,2.3-2.3v-4.2c-0.3,0.2-0.7,0.4-1.1,0.4c-1,0-1.9-0.8-1.9-1.9c0-1,0.8-1.9,1.9-1.9
				c0.4,0,0.8,0.1,1.1,0.4v-0.9c0-1.3-1-2.3-2.3-2.3s-2.3,1-2.3,2.3v8C180.4,61.9,181.4,62.9,182.7,62.9z"/>
			<path fill="#995936" d="M74.6,249.9c-0.5,0.2-0.1,1,0.5,1.9c0,0.1,0.1,0.2,0.2,0.4c0,0,0.1,0.1,0.2,0.2c0.1,0.1,0.2,0.3,0.3,0.4
				c0.4,0.7,0.9,1.9,0.9,4.2c0,3.8,0.1,7.8-0.1,8.5c-0.6,1.9,1.6,2.2,1.4,0.3s-0.1-8.1,0.6-9.7c0.7-1.6,1.9-2.2,2.1-2.7
				c2.3-2.1,2-4.2,2.4-5.2c0.4-1,4.1-2.6,4.3-4.1c0.2-1.5-1.2-2.2-2.3-1.1c0,0-2.6-1.3-4-0.1s-3,4.3-3.9,4.1s-2.9-1.1-3-0.1
				C74.2,247.9,75.5,249.6,74.6,249.9z"/>
			<path fill="#995936" d="M144.7,87c-2.6-1.6-4.6-0.7-5.6-0.8c-1-0.1-3.6-3.2-5.1-3s-1.8,1.8-0.4,2.5c0,0-0.5,2.9,1.1,3.8
				c1.6,0.9,5,1.6,5.1,2.6c0.1,1-0.3,3.1,0.7,2.9s2.2-1.9,2.7-1.1s-1.4,11.5,0.9,11.9c4.5,0.8,0.6-11,1.5-12.1S147.3,88.6,144.7,87z"
				/>
			<path fill="#995936" d="M145.9,197.6c3.6,1.1,4.9-1,5.7-1s3.9-2.1,4.4-4.3s-5.1-4.6-7-0.6c0,0-0.8,1-3.1,1.9
				S142.3,196.5,145.9,197.6z"/>
			<path fill="#995936" d="M168.5,152.1c0,0,1.3-0.2,3.6,0.6s4.6,0.3,2.6-3c-2-3.2-4.3-2.5-4.9-3c-0.7-0.5-4.3-1-6.1,0.3
				S164.5,153.9,168.5,152.1z"/>
			<path fill="#995936" d="M91,218.9c2.8,2,4.9-1.9,5.2-1.5c4,5.1-2.6,14.5,3.5,14.6c4.4,0.1-0.9-11.2,2-14.6
				c1.2-1.4,4.1,1.6,5.7,0.5c1.6-1.1,0.1-4.6,2.2-6.1s1.5,0.6,3.9,1.2c2.3,0.6,4.7-3.7,2.8-4.8s0.3-5.4,3.4-7
				c3.1-1.6,4.4-5.7,2.8-6.4c-1.6-0.8-2.8,2.5-4.7,4c-1.9,1.6-5.6,0.4-9,2.3s-2.5,3.2-5.2,5.2c-2.7,1.9-6.2-0.3-8.2,0.4
				c-2,0.7-1.1,3.2-1.5,5.1c-0.4,1.9-1.9,0.2-4,1.2C87.5,213.9,88.3,217,91,218.9z"/>
			<path fill="#995936" d="M122.7,173.9c2.1,0.8,5.6-2.8,6.7-4.5c1.1-1.8-3-1.5-3.4-1.4C118.7,170,120.6,173.1,122.7,173.9z"/>
			<path fill="#995936" d="M57.9,184.3c4.9,2.5,13.2,0.7,18.5,7.2c0.3,0.4-1.9-7.4-9-10.2S53,181.9,57.9,184.3z"/>
			<path fill="#995936" d="M74.2,176c-0.1-0.3-2.6-8.3-5.4-6.6S74.2,176,74.2,176z"/>
			<path fill="#995936" d="M47.5,176c0,0-10.1-2.4-11.3,1C35,180.5,47.5,176,47.5,176z"/>
			<path fill="#995936" d="M244.7,133.9c-7.1,2.8-9.3,10.6-9,10.2c5.3-6.6,13.6-4.7,18.5-7.2S251.8,131.2,244.7,133.9z"/>
			<path fill="#995936" d="M243.3,121.9c-2.8-1.7-5.3,6.3-5.4,6.6C237.8,128.5,246.1,123.6,243.3,121.9z"/>
			<path fill="#995936" d="M191.4,169.9c2.7,1,3,5.1,3,5.1s-1.7,15,1.4,14.5s-0.8-7.9,0.8-11.4c1.1-2.5,5.3-0.1,7.5-1.2
				c2.2-1.1-0.6-4.4,1.3-3.5c1.9,0.9,3.8,0.2,5.9-0.8c2.1-1-0.2-3.1-2.1-5.1c-1.9-2-2.2-6.2,4.4-5.8c6.6,0.5,2.7,6,5.6,6.9
				c3.1,0.9,0.7-8.6,2.6-12.2c1.5-2.9-7.3-1-8.9-2.1s-1.1-6.9-4.3-6.3c-3.2,0.6-6.5,5.8-8.1,8.2c-1.6,2.3-2.3-0.9-5.7-1
				c-3.3,0-4,5.7-4,5.7s-2,1.4-2.3,4C188.1,167.5,188.7,169,191.4,169.9z"/>
		</g>
	</g>
</svg>
